<svg xmlns="http://www.w3.org/2000/svg" xmlns:xlink="http://www.w3.org/1999/xlink" viewBox="0 0 565.96 565.96"><defs><style>.cls-1,.cls-3,.cls-4{fill:none;}.cls-2{fill:#fff;}.cls-3{stroke:#373636;}.cls-3,.cls-4{stroke-width:1.21px;}.cls-4{stroke:#1d1d1b;}.cls-5{clip-path:url(#clip-path);}.cls-6{fill:#003056;}.cls-7{fill:#373636;}</style><clipPath id="clip-path"><rect class="cls-1" x="29.72" y="110.58" width="520.85" height="283.68"/></clipPath></defs><g id="Ebene_2" data-name="Ebene 2"><g id="Ebene_1-2" data-name="Ebene 1"><circle class="cls-2" cx="282.98" cy="282.98" r="282.98"/><line class="cls-3" x1="484.73" y1="241.11" x2="540.66" y2="289.1"/><line class="cls-3" x1="540.97" y1="289.34" x2="520.99" y2="355.41"/><line class="cls-3" x1="483.32" y1="240.87" x2="520.46" y2="356.6"/><line class="cls-3" x1="486.94" y1="240.31" x2="479.25" y2="156.28"/><line class="cls-3" x1="476.9" y1="159.93" x2="392.96" y2="175.77"/><line class="cls-3" x1="392.96" y1="175.77" x2="348.24" y2="228.79"/><line class="cls-3" x1="163.76" y1="172.17" x2="279.71" y2="118.1"/><line class="cls-3" x1="279.86" y1="118.36" x2="266" y2="197.3"/><line class="cls-3" x1="166.43" y1="240.34" x2="43.23" y2="207.02"/><line class="cls-3" x1="166.57" y1="240.24" x2="261.9" y2="192.62"/><line class="cls-3" x1="163.51" y1="172.23" x2="43.41" y2="207.39"/><line class="cls-3" x1="266.23" y1="195.32" x2="348.23" y2="228.82"/><line class="cls-3" x1="392.79" y1="176.01" x2="279.76" y2="119.84"/><line class="cls-4" x1="263.28" y1="196.7" x2="163.51" y2="172.02"/><g class="cls-5"><path class="cls-6" d="M541.3,298.44a9.27,9.27,0,1,0-9.27-9.27,9.27,9.27,0,0,0,9.27,9.27"/><path class="cls-6" d="M519.16,367.85a9.27,9.27,0,1,0-9.27-9.27,9.27,9.27,0,0,0,9.27,9.27"/></g><g class="cls-5"><path class="cls-6" d="M263.28,204.59a9.27,9.27,0,1,0-9.27-9.27,9.27,9.27,0,0,0,9.27,9.27"/><path class="cls-6" d="M43.07,216.35a9.27,9.27,0,1,0-9.26-9.27,9.27,9.27,0,0,0,9.26,9.27"/></g><rect class="cls-7" x="381.82" y="322.5" width="8.05" height="8.05"/><rect class="cls-7" x="399.46" y="322.5" width="8.05" height="8.05"/><rect class="cls-7" x="372.97" y="313.69" width="8.05" height="8.05"/><rect class="cls-7" x="372.97" y="296.02" width="8.05" height="8.05"/><rect class="cls-7" x="381.82" y="304.87" width="8.05" height="8.05"/><rect class="cls-7" x="399.46" y="304.87" width="8.05" height="8.05"/><rect class="cls-7" x="390.64" y="313.69" width="8.05" height="8.05"/><rect class="cls-7" x="390.64" y="296.02" width="8.05" height="8.05"/><g class="cls-5"><path class="cls-7" d="M418.73,296V315c0,10.87,5,15.66,13.65,15.66,8.92,0,14.23-5,14.23-15.55V296h-7.72v19.61c0,6.07-2.23,8.93-6.29,8.93s-6.19-3-6.19-8.93V296Zm34.57,34a58.79,58.79,0,0,0,8.38.51c6.8,0,10.93-1.09,13.42-3.1a9,9,0,0,0,3.55-7.25c0-4.42-2.89-7.39-6.8-8.41v-.11c3.8-1.46,5.56-4.24,5.56-7.24a7.38,7.38,0,0,0-4.06-6.73c-2.49-1.47-5.38-1.94-10.1-1.94a59.35,59.35,0,0,0-10,.77V330ZM461,301.62a14.49,14.49,0,0,1,3.29-.26c3.51,0,5.48,1.35,5.48,3.95s-2.12,4.21-6.21,4.21H461v-7.9ZM461,315h2.63c3.84,0,6.95,1.36,6.95,4.83s-3.11,5-6.59,5a17.74,17.74,0,0,1-3-.14Z"/><path class="cls-7" d="M381.64,360.18H384l-.55-13.12h-3.11l-1.1,4.37c-.36,1.48-.69,3.18-1,4.7h-.07c-.22-1.52-.55-3.18-.88-4.7l-1-4.42h-3.15l-.66,13.13h2.2l.18-5c.07-1.65.11-3.68.18-5.43h0c.26,1.75.59,3.59,1,5.16l1.1,5.06h1.83l1.28-5.11c.4-1.52.84-3.41,1.17-5.06h0c0,1.93,0,3.82.11,5.38Zm13.17-3.36.81,3.36h2.52l-3.26-13.12h-3.07l-3.18,13.12h2.45l.73-3.36Zm-2.67-2.21.62-2.81c.15-.78.33-1.75.48-2.53h0c.15.74.33,1.75.52,2.53l.65,2.81Zm13.21,5.57v-4c0-2.16,0-4-.11-5.75h.07c.51,1.52,1.21,3.22,1.83,4.65l2.23,5.06h2.49V347.06H409.7v3.82c0,2,0,3.78.18,5.48h-.07a47.71,47.71,0,0,0-1.72-4.51l-2.16-4.79h-2.74v13.12Zm14.33,0v-4c0-2.16,0-4-.11-5.75h.08c.51,1.52,1.21,3.22,1.83,4.65l2.23,5.06h2.49V347.06H424v3.82c0,2,0,3.78.18,5.48h0a42.81,42.81,0,0,0-1.72-4.51l-2.15-4.79h-2.75v13.12Zm12.15-13.12v13.12h2.34V354.7h3.88v5.48h2.34V347.06h-2.34v5.06h-3.88v-5.06Zm20.52,5.16h-3.84V349.5h4.06v-2.44h-6.4v13.12h6.62v-2.44h-4.28v-3.13h3.84Zm5.71,8h2.34V347.06h-2.34Zm17,0h2.3l-.55-13.12h-3.11l-1.1,4.37c-.36,1.48-.69,3.18-1,4.7h-.08c-.22-1.52-.54-3.18-.87-4.7l-1-4.42h-3.14l-.66,13.13H468l.22-5c.07-1.65.11-3.68.18-5.43h0c.26,1.75.59,3.59.95,5.16l1.1,5.06h1.83l1.28-5.11c.4-1.52.84-3.41,1.17-5.06h0c0,1.93,0,3.82.11,5.38Z"/><path class="cls-7" d="M372.13,338.75v2.77c0,1.58.73,2.27,2,2.27s2.08-.73,2.08-2.27v-2.77h-1.13v2.85c0,.88-.33,1.28-.92,1.28s-.91-.44-.91-1.28v-2.85Zm6.95,5v-1.5c0-.81,0-1.5,0-2.16h0a16,16,0,0,0,.88,1.76l1.06,1.9h1.17v-5h-1v1.46c0,.77,0,1.42.07,2.08a16.66,16.66,0,0,0-.81-1.72l-1-1.82h-1.32v5Zm4.94,0h1.13v-5H384Zm5.49,0,1.64-5h-1.21l-.62,2.12a16,16,0,0,0-.44,1.75h0a16.67,16.67,0,0,0-.44-1.79l-.62-2.08h-1.25l1.61,5Zm6-3h-1.83v-1h1.94v-.91h-3.07v5h3.14v-.91h-2v-1.18h1.83Zm1.87,3h1.09v-2h.33c.48,0,.7.19.81.81a6.48,6.48,0,0,0,.33,1.17h1.13a9.8,9.8,0,0,1-.4-1.43,1.19,1.19,0,0,0-.66-.91v0a1.27,1.27,0,0,0,.88-1.2,1.17,1.17,0,0,0-.48-1,2.49,2.49,0,0,0-1.61-.4,8.45,8.45,0,0,0-1.5.11v4.9Zm1.09-4.13a1.46,1.46,0,0,1,.52,0c.51,0,.84.22.84.7s-.33.69-.88.69h-.44v-1.35Zm4,3.91a3.35,3.35,0,0,0,1.39.29c1.35,0,2-.69,2-1.53s-.41-1.17-1.28-1.5c-.66-.26-.92-.41-.92-.7s.22-.47.73-.47a2.6,2.6,0,0,1,1,.22l.25-.92a2.88,2.88,0,0,0-1.28-.25c-1.17,0-1.86.65-1.86,1.5s.55,1.17,1.35,1.49c.59.22.84.41.84.7s-.25.55-.8.55a3.11,3.11,0,0,1-1.25-.29Zm5.08.22h1.13v-5h-1.13Zm3.95,0h1.13v-4H414v-.95h-3.81v.95h1.36v4Zm6.55-1.28.36,1.28h1.21l-1.54-5h-1.46l-1.54,5h1.18l.36-1.28Zm-1.28-.84.29-1.06c.07-.29.15-.66.22-1a8.39,8.39,0,0,0,.26,1l.29,1.06Zm-.11-3.15a.48.48,0,0,0,.47-.47.5.5,0,0,0-.47-.52.5.5,0,0,0-.51.52.49.49,0,0,0,.51.47m1.5,0a.46.46,0,0,0,.47-.47.5.5,0,0,0-.47-.52.5.5,0,0,0-.51.52.49.49,0,0,0,.51.47m4,5.27h1.14v-4h1.35v-.95h-3.84v.95h1.35Zm3.7-.22a3.35,3.35,0,0,0,1.39.29c1.35,0,2-.69,2-1.53s-.4-1.17-1.28-1.5c-.66-.26-.91-.41-.91-.7s.22-.47.73-.47a2.54,2.54,0,0,1,1,.22l.26-.92a2.91,2.91,0,0,0-1.28-.25c-1.17,0-1.87.65-1.87,1.5s.55,1.17,1.36,1.49c.58.22.84.41.84.7s-.26.55-.81.55a3.06,3.06,0,0,1-1.24-.29Zm5.08.18a8.05,8.05,0,0,0,1.21.08,3,3,0,0,0,1.94-.44,1.37,1.37,0,0,0,.51-1.06,1.19,1.19,0,0,0-1-1.21,1.14,1.14,0,0,0,.81-1.06,1.09,1.09,0,0,0-.59-1,2.62,2.62,0,0,0-1.46-.29,7.65,7.65,0,0,0-1.46.11v4.86Zm1.1-4.13a1.29,1.29,0,0,1,.48,0c.51,0,.8.19.8.59s-.29.62-.91.62H432Zm0,2h.37c.55,0,1,.19,1,.7s-.44.73-.95.73a1.4,1.4,0,0,1-.44,0Zm4.24,2.2h1.14v-5h-1.14Zm3,0a7.9,7.9,0,0,0,1.2.08,3,3,0,0,0,1.94-.44,1.35,1.35,0,0,0,.52-1.06,1.2,1.2,0,0,0-1-1.21,1.13,1.13,0,0,0,.8-1.06,1.08,1.08,0,0,0-.58-1,2.68,2.68,0,0,0-1.47-.29,7.65,7.65,0,0,0-1.46.11v4.86Zm1.13-4.13a1.29,1.29,0,0,1,.48,0c.51,0,.8.19.8.59s-.29.62-.91.62h-.37Zm0,2h.37c.55,0,1,.19,1,.7s-.44.73-.95.73a1.4,1.4,0,0,1-.44,0Zm4.21,2.2h3.11v-1h-2v-4h-1.13Zm4.68,0h1.13v-5h-1.13Zm5.08.07a2.37,2.37,0,0,0,2.46-2.63,2.33,2.33,0,0,0-2.38-2.52,2.39,2.39,0,0,0-2.42,2.59,2.33,2.33,0,0,0,2.34,2.56m0-.88c-.77,0-1.21-.73-1.21-1.68s.44-1.68,1.21-1.68,1.21.77,1.21,1.65-.44,1.71-1.21,1.71m4.76.81h1.13v-4h1.35v-.95h-3.8v.95h1.35v4Zm3.95-5v5h1.13v-2.09h1.87v2.09h1.13v-5h-1.13v1.9H464.2v-1.9Zm8.92,1.93h-1.83v-1h1.94v-.91H469v5h3.15v-.91h-2v-1.18H472Zm1.87,3H475v-1.61l.4-.51,1.2,2.16h1.32l-1.72-2.86,1.65-2.12h-1.39l-1.14,1.65L475,341v-2.2h-1.1Z"/><path class="cls-6" d="M477.24,168.15a11.33,11.33,0,1,0-11.33-11.33,11.33,11.33,0,0,0,11.33,11.33"/><path class="cls-7" d="M313.53,293.17h13.08a25.83,25.83,0,0,1,7.57,1,9.53,9.53,0,0,1,5.09,3.58c1.24,1.73,1.87,4.22,1.87,7.47q0,7.37-3.43,10.38t-10.69,3H313.53Zm0,31.34h15q6.84,0,10.69,3.32T343,339.25V341q0,8-3.83,11.67t-10.69,3.69h-15Zm15.88,38.19a25.19,25.19,0,0,0,10.38-2.08,15.72,15.72,0,0,0,7.36-6.74q2.7-4.67,2.7-12.56v-1.87a24.41,24.41,0,0,0-1.35-8.82,14.77,14.77,0,0,0-3.73-5.6,17.74,17.74,0,0,0-5.6-3.42,13.81,13.81,0,0,0,6.38-6.18A22.43,22.43,0,0,0,348,304.49c0-4.92-1-8.63-2.86-11.16a14.07,14.07,0,0,0-7.68-5.14,39.74,39.74,0,0,0-10.63-1.35h-17a3.72,3.72,0,0,0-2.13.68,2.18,2.18,0,0,0-1,1.92V360.1a2.35,2.35,0,0,0,.88,1.82,3.24,3.24,0,0,0,2.23.78Zm-62.67-65.48L279.29,339H254.08Zm-20.13,65.06a2.26,2.26,0,0,0,1-1.35l4.78-16h28.64l4.87,16a1.92,1.92,0,0,0,.94,1.35,3,3,0,0,0,1.55.42,4.82,4.82,0,0,0,2-.42,4.51,4.51,0,0,0,1.55-1.09,2.14,2.14,0,0,0,.62-1.5,1.87,1.87,0,0,0-.1-.62l-21.58-70.46a2.82,2.82,0,0,0-1.51-1.77,5.68,5.68,0,0,0-2.64-.62,5.49,5.49,0,0,0-2.49.57,3,3,0,0,0-1.56,1.82L241,359.07a2.24,2.24,0,0,0-.1.72,2.19,2.19,0,0,0,.62,1.51,4.19,4.19,0,0,0,1.56,1,4.9,4.9,0,0,0,1.76.36,3.51,3.51,0,0,0,1.77-.42M231,362.7a1.84,1.84,0,0,0,1.77-1,4.76,4.76,0,0,0,.51-2.23,4.58,4.58,0,0,0-.51-2.13,1.85,1.85,0,0,0-1.77-1H201.47v-67a2,2,0,0,0-1.09-1.92,5,5,0,0,0-2.34-.58,4.85,4.85,0,0,0-2.38.58,2,2,0,0,0-1,1.92V360a2.28,2.28,0,0,0,1,2,3.72,3.72,0,0,0,2.13.68Zm-78.76-7.42a16.18,16.18,0,0,1-4.56-4.36,7.74,7.74,0,0,1-1.66-4V332.4a12.83,12.83,0,0,1,1.86-7.06,13.41,13.41,0,0,1,4.73-4.51,12,12,0,0,1,6-1.61,11.85,11.85,0,0,1,6.59,1.92,14.54,14.54,0,0,1,4.72,4.93,12.29,12.29,0,0,1,1.77,6.33v11.31a12.82,12.82,0,0,1-1.82,6.54,15,15,0,0,1-4.72,5,11.27,11.27,0,0,1-6.33,1.92,11.61,11.61,0,0,1-6.54-1.92m-7.21,30.66a2.4,2.4,0,0,0,1-1.87V355.43a15.63,15.63,0,0,0,5.5,5.61,15.46,15.46,0,0,0,8.51,2.39,16.15,16.15,0,0,0,9.13-2.76,20.77,20.77,0,0,0,6.69-7.31,19.58,19.58,0,0,0,2.54-9.65V332.4a19.07,19.07,0,0,0-2.54-9.76,20.12,20.12,0,0,0-6.75-7,17.29,17.29,0,0,0-9.39-2.65,14.81,14.81,0,0,0-8.61,2.44,17.46,17.46,0,0,0-5.29,5.45v-4.77a2.12,2.12,0,0,0-.94-1.82,3.77,3.77,0,0,0-2.28-.67,4,4,0,0,0-2.33.67,2.1,2.1,0,0,0-1,1.82v68a2.4,2.4,0,0,0,1,1.87,3.45,3.45,0,0,0,2.33.83,3.63,3.63,0,0,0,2.44-.83M93.91,363.17a2.86,2.86,0,0,0,1-.78L107.46,343l12.66,19.41a2,2,0,0,0,.88.78,2.67,2.67,0,0,0,1.09.26,3.85,3.85,0,0,0,1.86-.52,5.11,5.11,0,0,0,1.56-1.3,2.41,2.41,0,0,0,.62-1.51,3.42,3.42,0,0,0-.1-.83,1.34,1.34,0,0,0-.31-.62L111.81,337.9l13.6-20.13a2.45,2.45,0,0,0,.52-1.35,2.54,2.54,0,0,0-.68-1.71,5.06,5.06,0,0,0-1.61-1.25,4.13,4.13,0,0,0-1.86-.47,2.67,2.67,0,0,0-1.09.26,2,2,0,0,0-.89.78l-12.34,19L95.21,314a2.12,2.12,0,0,0-1-.83,3.22,3.22,0,0,0-1.09-.21,3.86,3.86,0,0,0-1.87.52,5.86,5.86,0,0,0-1.61,1.3,2.45,2.45,0,0,0-.67,1.61,1.31,1.31,0,0,0,.2.67,3.94,3.94,0,0,1,.31.68L103,337.9l-13.8,20.75a2.62,2.62,0,0,0-.41,1.45,2.33,2.33,0,0,0,.67,1.51,6,6,0,0,0,1.61,1.3,3.59,3.59,0,0,0,1.66.52,2.86,2.86,0,0,0,1.19-.26m-16.65-.47a2.15,2.15,0,0,0,2-1,4.09,4.09,0,0,0,0-4.41,2.23,2.23,0,0,0-1.92-.93H44.05V327.62h16.3a2.22,2.22,0,0,0,2-.93,3.36,3.36,0,0,0,.62-1.87,3.71,3.71,0,0,0-.67-2.18,2.24,2.24,0,0,0-1.92-.93H44.05V293.17H77.26a2.18,2.18,0,0,0,1.92-1,4,4,0,0,0,.67-2.34,3.7,3.7,0,0,0-.62-2,2.15,2.15,0,0,0-2-1H40.32a3.72,3.72,0,0,0-2.13.68,2.18,2.18,0,0,0-1,1.92V360a2.26,2.26,0,0,0,1,2,3.72,3.72,0,0,0,2.13.68Z"/></g><line class="cls-3" x1="347.69" y1="225.84" x2="484.45" y2="240.81"/><line class="cls-3" x1="279.44" y1="121.03" x2="348.49" y2="229.36"/><line class="cls-3" x1="392.56" y1="177.04" x2="482.74" y2="239.15"/><line class="cls-3" x1="163.57" y1="172.71" x2="165.8" y2="240.25"/><g class="cls-5"><path class="cls-6" d="M484.45,251.64a11.33,11.33,0,1,0-11.32-11.33,11.33,11.33,0,0,0,11.32,11.33"/><path class="cls-6" d="M348,239.86a11.33,11.33,0,1,0-11.33-11.33A11.33,11.33,0,0,0,348,239.86"/><path class="cls-6" d="M162.55,183a11.33,11.33,0,1,0-11.33-11.33A11.33,11.33,0,0,0,162.55,183"/><path class="cls-6" d="M165.8,248.42a9.27,9.27,0,1,0-9.27-9.27,9.27,9.27,0,0,0,9.27,9.27"/><path class="cls-6" d="M279.68,129.11a9.27,9.27,0,1,0-9.27-9.27,9.27,9.27,0,0,0,9.27,9.27"/><path class="cls-6" d="M393,185.28a9.27,9.27,0,1,0-9.27-9.27,9.27,9.27,0,0,0,9.27,9.27"/></g></g></g></svg>